<?xml version="1.0" encoding="UTF-8"?>
<svg version="1.1" xmlns="http://www.w3.org/2000/svg" width="240" height="300">
<path d="M0 0 C1.75109502 2.29323867 3.25897117 4.48725881 4.75 6.9375 C5.16121094 7.58396484 5.57242188 8.23042969 5.99609375 8.89648438 C9 13.7017364 9 13.7017364 9 16 C7.3828125 17.19140625 7.3828125 17.19140625 5.125 18.5625 C-11.26447006 29.2053477 -21.90656325 44.87692979 -26 64 C-29.50340378 81.51701891 -25.49166094 100.01638789 -16.078125 115.07421875 C-12.10257241 120.72166071 -7.97750223 125.02249777 -3 130 C-2.67 116.8 -2.34 103.6 -2 90 C-1.34 90 -0.68 90 0 90 C0.27972656 90.76183594 0.55945313 91.52367187 0.84765625 92.30859375 C5.24407877 103.9840755 5.24407877 103.9840755 14.22045898 112.08544922 C16.97576283 113.50150117 18.90285457 114.70465691 21 117 C22.131751 121.82531263 21.85132696 126.45259857 21.5625 131.375 C21.5015918 133.33759766 21.5015918 133.33759766 21.43945312 135.33984375 C21.33363268 138.56148854 21.1722068 141.78122105 21 145 C26.28 146.32 31.56 147.64 37 149 C37 138.44 37 127.88 37 117 C40.3 115.35 43.6 113.7 47 112 C49.52236389 110.06758256 49.52236389 110.06758256 51.3125 108 C51.90675781 107.360625 52.50101562 106.72125 53.11328125 106.0625 C53.73589844 105.381875 54.35851562 104.70125 55 104 C56.65 102.35 58.3 100.7 60 99 C60 115.17 60 131.34 60 148 C65.445 147.01 65.445 147.01 71 146 C72.99907671 145.66117344 74.99855726 145.32455828 77 145 C76.9371582 144.23969482 76.87431641 143.47938965 76.80957031 142.69604492 C75.13619792 119.4471127 75.13619792 119.4471127 79.42578125 114.109375 C81.42365141 112.21467064 83.59750748 110.67018529 85.875 109.12890625 C93.1681678 104.16043569 96.87848435 96.36483313 99 88 C99.66 88 100.32 88 101 88 C101.33 101.53 101.66 115.06 102 129 C109.79144632 121.45118586 109.79144632 121.45118586 115.3125 113.0625 C115.80194092 112.1648291 115.80194092 112.1648291 116.30126953 111.24902344 C125.5168176 94.03498817 127.89690963 75.68023343 122.32421875 56.85546875 C117.0988183 40.89811596 106.63172013 25.93379341 91.875 17.4375 C90.92625 16.963125 89.9775 16.48875 89 16 C90.48635116 11.78345644 92.61249159 8.37521395 95.125 4.6875 C95.84945312 3.61886719 96.57390625 2.55023438 97.3203125 1.44921875 C98.15175781 0.23685547 98.15175781 0.23685547 99 -1 C111.29585942 1.03497906 123.57311961 15.74852217 130.57421875 25.37109375 C144.51208768 45.538054 149.92645288 69.61939601 145.68359375 93.7890625 C140.47994361 118.23135058 126.3820303 139.35726144 105.6875 153.375 C83.41685972 167.80520185 55.76642925 173.79109958 29.5625 168.75 C22.27326558 167.18748719 15.12250395 165.19239575 8 163 C8 162.34 8 161.68 8 161 C7.30132812 160.9071875 6.60265625 160.814375 5.8828125 160.71875 C-4.05282335 158.2415725 -13.51775097 149.59985133 -21 143 C-21.62261719 142.46117187 -22.24523437 141.92234375 -22.88671875 141.3671875 C-38.4453619 126.93282858 -48.32068698 105.102751 -49.37890625 84.03125 C-50.14578058 57.35541452 -42.71646787 35.25451906 -24.42578125 15.48828125 C-6.89688723 -2.49224289 -6.89688723 -2.49224289 0 0 Z " fill="#28419E" transform="translate(73,101)"/>
<path d="M0 0 C5.68850967 1.92504558 7.9616941 4.96676249 11 10 C14.70343713 17.72330717 16.10058967 24.83909584 16.5625 33.3125 C16.60568359 34.05306641 16.64886719 34.79363281 16.69335938 35.55664062 C16.79870432 37.37091464 16.89978316 39.1854355 17 41 C19.475 36.05 19.475 36.05 22 31 C22.66 31 23.32 31 24 31 C24.81393517 33.85847242 25.12830714 36.40238432 25.1328125 39.37109375 C25.13474609 40.60375977 25.13474609 40.60375977 25.13671875 41.86132812 C25.13285156 42.71146484 25.12898438 43.56160156 25.125 44.4375 C25.13080078 45.7069043 25.13080078 45.7069043 25.13671875 47.00195312 C25.13025437 51.12945952 25.041272 54.97540106 24 59 C26.24071094 57.99554337 27.87754985 57.12245015 29.625 55.375 C30.07875 54.92125 30.5325 54.4675 31 54 C31.66 54 32.32 54 33 54 C37.67363228 70.09387891 30.38792048 87.611959 24.5625 102.4375 C20.23040775 113.50381692 16.59460883 124.39160803 14 136 C7.05119438 137.87064531 -0.94152325 138.67233188 -8 137 C-11.84899007 134.01361203 -13.24246984 130.46507662 -15 126 C-15.50144531 124.95070313 -16.00289062 123.90140625 -16.51953125 122.8203125 C-20.68144501 113.86429555 -23.52949204 104.4913209 -26.36572266 95.05126953 C-26.8843552 93.37399832 -27.4562483 91.71327727 -28.04296875 90.05859375 C-31.18080173 81.11650633 -31.39095919 70.90126787 -28 62 C-27.34 62 -26.68 62 -26 62 C-25.82984375 62.61488281 -25.6596875 63.22976562 -25.484375 63.86328125 C-24.0327103 68.97327748 -24.0327103 68.97327748 -20.8125 73.0625 C-19.9153125 73.5265625 -19.9153125 73.5265625 -19 74 C-19.33 72.948125 -19.66 71.89625 -20 70.8125 C-22.92917995 58.90612105 -20.86045365 47.60463041 -15 37 C-14.34 37 -13.68 37 -13 37 C-12.34 40.3 -11.68 43.6 -11 47 C-10.34 47 -9.68 47 -9 47 C-4.8016114 38.05316653 -1.27862361 29.88341497 0 20 C0.17345947 19.37416016 0.34691895 18.74832031 0.52563477 18.10351562 C1.30042135 14.66781764 0.83008754 11.23171373 0.5625 7.75 C0.48418945 6.63238281 0.48418945 6.63238281 0.40429688 5.4921875 C0.2751783 3.66105139 0.13834886 1.83046187 0 0 Z " fill="#EF3025" transform="translate(119,0)"/>
<path d="M0 0 C0.86646667 1.43011973 1.71781829 2.86940619 2.5625 4.3125 C3.03816406 5.11300781 3.51382813 5.91351563 4.00390625 6.73828125 C5 9 5 9 4 12 C1.69921875 13.65625 1.69921875 13.65625 -1.3125 15.5 C-24.08001449 30.29077247 -38.66954895 52.88893022 -44.875 79.125 C-49.50519645 105.19741573 -44.01107093 131.28157385 -29.27246094 153.20068359 C-23.50401631 161.35752107 -16.8617055 168.80524638 -9 175 C-10.82504909 178.92300272 -13.18270826 181.73787272 -16 185 C-36.46928883 173.9897171 -49.03652092 148.92749413 -55.9921875 127.79296875 C-58.60295604 117.96716933 -59.38920559 108.59901947 -59.375 98.4375 C-59.37445618 97.77869843 -59.37391235 97.11989685 -59.37335205 96.44113159 C-59.3318949 85.48865002 -58.45520813 75.4050674 -55 65 C-54.78569336 64.3507959 -54.57138672 63.7015918 -54.35058594 63.03271484 C-45.59096963 37.4615205 -27.71381959 16.35969687 -5 2 C-2 0 -2 0 0 0 Z " fill="#151413" transform="translate(59,80)"/>
<path d="M0 0 C14.08398431 2.38086401 28.99656509 20.11115422 36.9375 31 C37.98715238 32.64866866 39.00538011 34.3175584 40 36 C40.34579102 36.55558594 40.69158203 37.11117187 41.04785156 37.68359375 C52.26407409 55.74409844 57.40607966 74.29455166 57.375 95.5625 C57.37412384 96.22196625 57.37324768 96.8814325 57.37234497 97.56088257 C57.2282786 130.52416563 43.10724145 155.77283349 20.359375 179.00390625 C17.968153 181.02694341 15.95790072 182.02976661 13 183 C11.82739389 181.71372289 10.6620717 180.42080217 9.5 179.125 C8.8503125 178.40570313 8.200625 177.68640625 7.53125 176.9453125 C6 175 6 175 6 173 C7.56652953 171.70314383 9.1809134 170.46399171 10.8125 169.25 C27.05651533 156.20050182 36.43091014 137.73203052 42 118 C42.268125 117.07058594 42.53625 116.14117187 42.8125 115.18359375 C48.4040014 90.99258423 41.9419011 64.33195426 29.296875 43.48828125 C20.62019048 29.89202298 8.82758408 19.17562481 -5 11 C-4.10950811 6.76313335 -2.20552339 3.69958761 0 0 Z " fill="#151413" transform="translate(183,82)"/>
<path d="M0 0 C0.99 0.33 1.98 0.66 3 1 C4.29676812 5.61073111 3.71109139 9.33840089 3 14 C3.99 13.67 4.98 13.34 6 13 C12.47933884 12.65289256 12.47933884 12.65289256 16 15 C16.1875 18.125 16.1875 18.125 16 21 C17.32 21.33 18.64 21.66 20 22 C20.0825 21.071875 20.165 20.14375 20.25 19.1875 C21 16 21 16 22.8125 14.0625 C25 13 25 13 27.1875 13.25 C29 14 29 14 30 15 C29.71269945 17.33944736 29.38063221 19.6739143 29 22 C32.3 21.34 35.6 20.68 39 20 C39 18.35 39 16.7 39 15 C39.99 14.34 40.98 13.68 42 13 C44.11704665 15.87918344 45.01143087 17.43988717 44.9375 21.0625 C43.8356144 24.51507489 42.82206212 25.75175718 40 28 C36.94140625 28.64453125 36.94140625 28.64453125 33.5625 28.8125 C31.89380859 28.91498047 31.89380859 28.91498047 30.19140625 29.01953125 C27.28135384 29.00172187 24.8315651 28.59231719 22 28 C20.3603125 28.2475 20.3603125 28.2475 18.6875 28.5 C15.32150081 28.95640667 12.60151467 28.83476357 9.26171875 28.31640625 C5.60055279 27.80422241 1.91055564 27.61732616 -1.77734375 27.37890625 C-2.87755859 27.19134766 -2.87755859 27.19134766 -4 27 C-4.33 26.34 -4.66 25.68 -5 25 C-6.32 25 -7.64 25 -9 25 C-9.99 22.69 -10.98 20.38 -12 18 C-9.02148438 18.43945312 -9.02148438 18.43945312 -6.04296875 18.87890625 C-3.7974658 19.13904799 -3.7974658 19.13904799 -1 18 C-1 13.71 -1 9.42 -1 5 C-1.66 4.67 -2.32 4.34 -3 4 C-2.01 2.68 -1.02 1.36 0 0 Z M2 21 C4.97 21 7.94 21 11 21 C11 20.01 11 19.02 11 18 C5.904658 17.59189416 5.904658 17.59189416 2 21 Z " fill="#1B1819" transform="translate(106,147)"/>
<path d="M0 0 C3.65320891 2.64274687 4.82826896 4.03830615 5.625 8.5 C5 12 5 12 3.0625 14.9375 C-0.51375359 17.34599732 -2.60531907 17.74203371 -6.83984375 17.48046875 C-10.50246824 16.66581629 -11.97177793 15.07504636 -14 12 C-14.625 8.5 -14.625 8.5 -14 5 C-9.45613306 -0.5004705 -6.96669891 -1.653115 0 0 Z " fill="#28419F" transform="translate(127,283)"/>
<path d="M0 0 C3.38677089 2.45000447 4.78698584 3.86392446 5.5625 8 C4.8491179 11.80470451 3.88381579 13.41196019 1 16 C-2.91908586 17.14009771 -5.03158504 17.40888632 -8.8125 15.8125 C-11.14036617 13.8836966 -12.17225611 12.89710361 -13 10 C-12.91986781 6.15365467 -12.45687085 4.51062036 -9.875 1.625 C-6.20040562 -0.45194465 -4.16245773 -0.66896642 0 0 Z " fill="#28419F" transform="translate(158,279)"/>
<path d="M0 0 C3.69879153 1.16443437 5.24663599 1.8273867 7.375 5.0625 C8.09625695 9.47018137 7.89501338 11.32187488 5.3125 15 C2.375 17.0625 2.375 17.0625 -1.125 17.6875 C-5.58350936 16.89133761 -7.03283917 15.75436542 -9.625 12.0625 C-10.3125 8.5625 -10.3125 8.5625 -9.625 5.0625 C-6.48302168 1.38408636 -4.88568266 0.08423591 0 0 Z " fill="#28419F" transform="translate(69.625,269.9375)"/>
<path d="M0 0 C2.28152547 1.65213913 2.89821867 2.72373638 3.875 5.375 C4.0389951 8.81889713 3.05689702 10.28195751 1 13 C-2.75047482 15.50031654 -4.55856266 15.53603554 -9 15 C-12.38121991 12.55401113 -13.76936783 11.10703441 -14.625 7 C-13.79456673 3.01392031 -12.11743323 1.53744565 -9 -1 C-5.17456525 -2.27514492 -3.66576992 -1.52740413 0 0 Z " fill="#28419F" transform="translate(95,280)"/>
<path d="M0 0 C4.06847602 0.65386222 5.72388652 1.54143533 8.5 4.5625 C9.5 7 9.5 7 9.5 9.5625 C8.18221752 12.63732578 6.78094662 14.32057374 4.25 16.5 C0.34644144 18.00819308 -1.71336981 17.17532397 -5.5 15.5625 C-8.01395067 13.29183488 -8.43130182 11.96610178 -9 8.625 C-8.11326546 3.19375093 -5.34924459 0.85970002 0 0 Z " fill="#28419F" transform="translate(176.5,270.4375)"/>
<path d="M0 0 C2.475 0.99 2.475 0.99 5 2 C3.515 4.475 3.515 4.475 2 7 C1.67 6.34 1.34 5.68 1 5 C0.01 4.67 -0.98 4.34 -2 4 C-1.34 2.68 -0.68 1.36 0 0 Z " fill="#181516" transform="translate(125,153)"/>
<path d="M0 0 C2.475 0.99 2.475 0.99 5 2 C4.67 3.32 4.34 4.64 4 6 C2.35 5.67 0.7 5.34 -1 5 C-0.67 3.35 -0.34 1.7 0 0 Z " fill="#181614" transform="translate(140,155)"/>
</svg>
